<svg xmlns:xlink="http://www.w3.org/1999/xlink" xmlns="http://www.w3.org/2000/svg" height="86.46931702443233" width="406.54069369857893"><defs id="SvgjsDefs1001"/><g id="SvgjsG1007" featurekey="nsji7U-0" transform="matrix(1.039603231529453,0,0,1.039603231529453,23.107920948713772,65.30299459596921)" fill="#ffffff"><path d="M6.82 5.84 c1.2933 0 2.32 0.32 3.08 0.96 s1.14 1.5 1.14 2.58 c0 1.5333 -0.81334 2.5734 -2.44 3.12 l0 0.04 l0.02 0 c0.92 0.10666 1.6567 0.49 2.21 1.15 s0.83 1.45 0.83 2.37 c0 1.1867 -0.45666 2.14 -1.37 2.86 s-2.09 1.08 -3.53 1.08 l-4.94 0 l0 -14.16 l5 0 z M6.42 11.72 c0.8 0 1.43 -0.18334 1.89 -0.55 s0.69 -0.89 0.69 -1.57 c0 -0.64 -0.2 -1.1467 -0.6 -1.52 s-0.92666 -0.56 -1.58 -0.56 l-3.08 0 l0 4.2 l2.68 0 z M6.64 18.32 c0.94666 0 1.68 -0.22 2.2 -0.66 s0.78 -1.02 0.78 -1.74 c0 -0.8 -0.26334 -1.42 -0.79 -1.86 s-1.27 -0.66 -2.23 -0.66 l-2.86 0 l0 4.92 l2.9 0 z M30.836000000000006 5.84 l0 12.36 l6.5 0 l0 1.8 l-8.42 0 l0 -14.16 l1.92 0 z M60.29200000000001 5.48 c2.1066 0 3.8634 0.69998 5.27 2.1 s2.11 3.18 2.11 5.34 c0 1.3733 -0.31334 2.63 -0.94 3.77 s-1.51 2.0366 -2.65 2.69 s-2.4034 0.98 -3.79 0.98 c-1.3733 0 -2.6266 -0.32334 -3.76 -0.97 s-2.02 -1.54 -2.66 -2.68 s-0.96 -2.4034 -0.96 -3.79 c0 -2.1066 0.69 -3.8734 2.07 -5.3 s3.15 -2.14 5.31 -2.14 z M54.952000000000005 12.92 c0 1.6 0.49998 2.94 1.5 4.02 s2.28 1.62 3.84 1.62 c1.5333 0 2.8066 -0.53334 3.82 -1.6 s1.52 -2.4134 1.52 -4.04 c0 -1.6133 -0.5 -2.9566 -1.5 -4.03 s-2.2866 -1.61 -3.86 -1.61 c-1.52 0 -2.7866 0.53334 -3.8 1.6 s-1.52 2.4134 -1.52 4.04 z M91.428 5.48 c1 0 1.9367 0.18664 2.81 0.55998 s1.59 0.92 2.15 1.64 l-1.6 1.22 c-0.86666 -1.08 -2.0066 -1.62 -3.42 -1.62 c-1.5333 0 -2.7966 0.54666 -3.79 1.64 s-1.49 2.4666 -1.49 4.12 c0 1.6 0.49 2.92 1.47 3.96 s2.25 1.56 3.81 1.56 s2.7934 -0.63334 3.7 -1.9 l1.62 1.22 c-0.56 0.74666 -1.3067 1.3467 -2.24 1.8 s-1.9733 0.68 -3.12 0.68 c-1.36 0 -2.5934 -0.33 -3.7 -0.99 s-1.98 -1.5667 -2.62 -2.72 s-0.96 -2.3634 -0.96 -3.63 c0 -2.1866 0.68666 -3.99 2.06 -5.41 s3.1466 -2.13 5.32 -2.13 z M115.42399999999999 5.84 l0 6.12 l0.16 0 l6.26 -6.12 l2.68 0 l-6.84 6.54 l7.3 7.62 l-2.8 0 l-6.6 -7.08 l-0.16 0 l0 7.08 l-1.92 0 l0 -14.16 l1.92 0 z M147.45999999999998 5.48 c1 0 1.9367 0.18664 2.81 0.55998 s1.59 0.92 2.15 1.64 l-1.6 1.22 c-0.86666 -1.08 -2.0066 -1.62 -3.42 -1.62 c-1.5333 0 -2.7966 0.54666 -3.79 1.64 s-1.49 2.4666 -1.49 4.12 c0 1.6 0.49 2.92 1.47 3.96 s2.25 1.56 3.81 1.56 s2.7934 -0.63334 3.7 -1.9 l1.62 1.22 c-0.56 0.74666 -1.3067 1.3467 -2.24 1.8 s-1.9733 0.68 -3.12 0.68 c-1.36 0 -2.5934 -0.33 -3.7 -0.99 s-1.98 -1.5667 -2.62 -2.72 s-0.96 -2.3634 -0.96 -3.63 c0 -2.1866 0.68666 -3.99 2.06 -5.41 s3.1466 -2.13 5.32 -2.13 z M171.456 5.84 l0 5.88 l7.34 0 l0 -5.88 l1.92 0 l0 14.16 l-1.92 0 l0 -6.48 l-7.34 0 l0 6.48 l-1.92 0 l0 -14.16 l1.92 0 z M205.03199999999998 5.84 l6.06 14.16 l-2.24 0 l-1.42 -3.5 l-6.74 0 l-1.4 3.5 l-2.24 0 l6.24 -14.16 l1.74 0 z M201.37199999999999 14.82 l5.36 0 l-2.64 -6.5 l-0.04 0 z M229.34799999999998 5.84 l0 14.16 l-1.92 0 l0 -14.16 l1.92 0 z M250.004 5.84 l7.8 11.64 l0.04 0 l0 -11.64 l1.92 0 l0 14.16 l-2.44 0 l-7.88 -11.64 l-0.04 0 l0 11.64 l-1.92 0 l0 -14.16 l2.52 0 z M282.62 5.84 c1.5067 0 2.8134 0.31 3.92 0.93 s1.9533 1.47 2.54 2.55 s0.88 2.28 0.88 3.6 s-0.32666 2.5234 -0.98 3.61 s-1.5667 1.9367 -2.74 2.55 s-2.48 0.92 -3.92 0.92 l-4.74 0 l0 -14.16 l5.04 0 z M282.02 18.2 c1.08 0 2.07 -0.21002 2.97 -0.63002 s1.6133 -1.0233 2.14 -1.81 s0.79 -1.7333 0.79 -2.84 c0 -1.6 -0.49666 -2.88 -1.49 -3.84 s-2.31 -1.44 -3.95 -1.44 l-2.98 0 l0 10.56 l2.52 0 z M316.35599999999994 5.84 l0 1.8 l-7.22 0 l0 4.22 l6.72 0 l0 1.8 l-6.72 0 l0 4.54 l7.58 0 l0 1.8 l-9.5 0 l0 -14.16 l9.14 0 z M334.212 5.84 l4.16 11.52 l0.04 0 l4.32 -11.52 l2.1 0 l-5.58 14.16 l-1.8 0 l-5.46 -14.16 l2.22 0 z"/></g><g id="SvgjsG1008" featurekey="nameLeftFeature-0" transform="matrix(2.079206463058906,0,0,2.079206463058906,-1.9544512199198163,1.605989191938427)" fill="#7e99b7"><path d="M8.32 5.48 c1 0 1.9367 0.18664 2.81 0.55998 s1.59 0.92 2.15 1.64 l-1.6 1.22 c-0.86666 -1.08 -2.0066 -1.62 -3.42 -1.62 c-1.5333 0 -2.7966 0.54666 -3.79 1.64 s-1.49 2.4666 -1.49 4.12 c0 1.6 0.49 2.92 1.47 3.96 s2.25 1.56 3.81 1.56 s2.7934 -0.63334 3.7 -1.9 l1.62 1.22 c-0.56 0.74666 -1.3067 1.3467 -2.24 1.8 s-1.9733 0.68 -3.12 0.68 c-1.36 0 -2.5934 -0.33 -3.7 -0.99 s-1.98 -1.5667 -2.62 -2.72 s-0.96 -2.3634 -0.96 -3.63 c0 -2.1866 0.68666 -3.99 2.06 -5.41 s3.1466 -2.13 5.32 -2.13 z M22.4 5.48 c2.1066 0 3.8634 0.69998 5.27 2.1 s2.11 3.18 2.11 5.34 c0 1.3733 -0.31334 2.63 -0.94 3.77 s-1.51 2.0366 -2.65 2.69 s-2.4034 0.98 -3.79 0.98 c-1.3733 0 -2.6266 -0.32334 -3.76 -0.97 s-2.02 -1.54 -2.66 -2.68 s-0.96 -2.4034 -0.96 -3.79 c0 -2.1066 0.69 -3.8734 2.07 -5.3 s3.15 -2.14 5.31 -2.14 z M17.06 12.92 c0 1.6 0.49998 2.94 1.5 4.02 s2.28 1.62 3.84 1.62 c1.5333 0 2.8066 -0.53334 3.82 -1.6 s1.52 -2.4134 1.52 -4.04 c0 -1.6133 -0.5 -2.9566 -1.5 -4.03 s-2.2866 -1.61 -3.86 -1.61 c-1.52 0 -2.7866 0.53334 -3.8 1.6 s-1.52 2.4134 -1.52 4.04 z M34.46 5.84 l0 12.36 l6.5 0 l0 1.8 l-8.42 0 l0 -14.16 l1.92 0 z M50.519999999999996 5.84 l0 1.8 l-4.56 0 l0 12.36 l-1.92 0 l0 -12.36 l-4.56 0 l0 -1.8 l11.04 0 z M59.059999999999995 5.48 c2.1066 0 3.8634 0.69998 5.27 2.1 s2.11 3.18 2.11 5.34 c0 1.3733 -0.31334 2.63 -0.94 3.77 s-1.51 2.0366 -2.65 2.69 s-2.4034 0.98 -3.79 0.98 c-1.3733 0 -2.6266 -0.32334 -3.76 -0.97 s-2.02 -1.54 -2.66 -2.68 s-0.96 -2.4034 -0.96 -3.79 c0 -2.1066 0.69 -3.8734 2.07 -5.3 s3.15 -2.14 5.31 -2.14 z M53.71999999999999 12.92 c0 1.6 0.49998 2.94 1.5 4.02 s2.28 1.62 3.84 1.62 c1.5333 0 2.8066 -0.53334 3.82 -1.6 s1.52 -2.4134 1.52 -4.04 c0 -1.6133 -0.5 -2.9566 -1.5 -4.03 s-2.2866 -1.61 -3.86 -1.61 c-1.52 0 -2.7866 0.53334 -3.8 1.6 s-1.52 2.4134 -1.52 4.04 z M71.72 5.84 l7.8 11.64 l0.04 0 l0 -11.64 l1.92 0 l0 14.16 l-2.44 0 l-7.88 -11.64 l-0.04 0 l0 11.64 l-1.92 0 l0 -14.16 l2.52 0 z"/></g><g id="SvgjsG1009" featurekey="inlineSymbolFeature-0" transform="matrix(0.8066506245471873,0,0,0.8066506245471873,172.67711109205075,-12.487758275535215)" fill="#7e99b7"><path xmlns="http://www.w3.org/2000/svg" d="M50.096,78.822l9.36-5.402l0.009,11.099l22.779-13.151V45.104l-9.564,5.513V39.708l-9.483-5.476l9.679-5.599L50.096,15.481  L28.678,27.847v1.603l8.296,4.795l-9.462,5.463v10.991l-9.756-5.639v26.278l22.747,13.132l0.008-11.183L50.096,78.822z   M58.163,46.542l-8.083,4.661l-8.17-4.722l8.074-4.662L58.163,46.542z M69.954,55.338v8.871l-7.774,4.489l-0.008-8.875  L69.954,55.338z M51.436,62.833l0.006-9.267l8.004-4.615v9.258L51.436,62.833z M48.715,53.564l-0.006,9.37l-8.188-4.726v-9.381  L48.715,53.564z M37.793,59.793l-0.006,8.775l-7.548-4.359v-8.783L37.793,59.793z M40.519,61.356l8.188,4.727l-0.006,8.786  l-8.188-4.729L40.519,61.356z M51.427,74.905l0.007-8.923l8.013-4.626l0.008,8.914L51.427,74.905z M79.518,49.822v19.971  l-17.33,10.006l-0.007-7.954l10.499-6.062V53.765L79.518,49.822z M62.171,56.678v-9.298l7.783-4.487v9.298L62.171,56.678z   M68.622,40.513l-7.73,4.457l-8.137-4.699l7.718-4.464L68.622,40.513z M50.078,38.67l-7.655-4.425l7.672-4.43l7.651,4.418  L50.078,38.67z M32.742,28.649l17.354-10.02l17.33,10.007l-6.955,4.023l-10.375-5.991L39.7,32.671L32.742,28.649z M47.306,40.217  l-8.121,4.689l-7.608-4.397l8.122-4.689L47.306,40.217z M30.239,42.885l7.555,4.368v9.391l-7.555-4.368V42.885z M37.78,79.751  l-17.297-9.986V49.786l7.03,4.064v11.934l10.273,5.933L37.78,79.751z"/></g><g id="SvgjsG1010" featurekey="nameRightFeature-0" transform="matrix(2.079209128227804,0,0,2.079209128227804,243.65543837862054,1.605934929098039)" fill="#7e99b7"><path d="M9.3 5.84 l0 5.88 l7.34 0 l0 -5.88 l1.92 0 l0 14.16 l-1.92 0 l0 -6.48 l-7.34 0 l0 6.48 l-1.92 0 l0 -14.16 l1.92 0 z M23.860000000000003 5.84 l0 8.74 c0 1.16 0.32334 2.1134 0.97 2.86 s1.51 1.12 2.59 1.12 s1.9433 -0.37334 2.59 -1.12 s0.97 -1.7 0.97 -2.86 l0 -8.74 l1.92 0 l0 9.06 c0 0.97334 -0.23 1.8833 -0.69 2.73 s-1.1133 1.5133 -1.96 2 s-1.79 0.73 -2.83 0.73 c-1.6 0 -2.9134 -0.52334 -3.94 -1.57 s-1.54 -2.3434 -1.54 -3.89 l0 -9.06 l1.92 0 z M42.46 5.84 l6.06 14.16 l-2.24 0 l-1.42 -3.5 l-6.74 0 l-1.4 3.5 l-2.24 0 l6.24 -14.16 l1.74 0 z M38.8 14.82 l5.36 0 l-2.64 -6.5 l-0.04 0 z M52.879999999999995 5.84 l7.8 11.64 l0.04 0 l0 -11.64 l1.92 0 l0 14.16 l-2.44 0 l-7.88 -11.64 l-0.04 0 l0 11.64 l-1.92 0 l0 -14.16 l2.52 0 z M72.8 5.48 c2.36 0 4.1134 0.6133 5.26 1.84 l-1.36 1.46 c-1.0533 -1 -2.36 -1.5 -3.92 -1.5 s-2.84 0.53666 -3.84 1.61 s-1.5 2.4166 -1.5 4.03 c0 1.6267 0.53 2.9734 1.59 4.04 s2.3634 1.6 3.91 1.6 c1.4667 0 2.6266 -0.24666 3.48 -0.74 l0 -3.94 l-3.14 0 l0 -1.8 l5.06 0 l0 6.98 c-0.69334 0.41334 -1.53 0.73334 -2.51 0.96 s-1.93 0.34 -2.85 0.34 c-2.2266 0 -4.0466 -0.69334 -5.46 -2.08 s-2.12 -3.1734 -2.12 -5.36 c0 -2.1066 0.69666 -3.8734 2.09 -5.3 s3.1634 -2.14 5.31 -2.14 z"/></g></svg>